<svg xmlns="http://www.w3.org/2000/svg" xmlns:xlink="http://www.w3.org/1999/xlink" width="500" zoomAndPan="magnify" viewBox="0 0 375 374.999991" height="500" preserveAspectRatio="xMidYMid meet" version="1.2"><defs><clipPath id="26d8c3d11b"><path d="M 213.46875 166.3125 L 234.46875 166.3125 L 234.46875 187.3125 L 213.46875 187.3125 Z M 213.46875 166.3125 "/></clipPath><clipPath id="bd71d7cb7d"><path d="M 110.625 339.808594 L 264.375 339.808594 L 264.375 375 L 110.625 375 Z M 110.625 339.808594 "/></clipPath><clipPath id="28915160e0"><path d="M 176.734375 339.808594 L 264.375 339.808594 L 264.375 375 L 176.734375 375 Z M 176.734375 339.808594 "/></clipPath><clipPath id="b9f4c10d47"><path d="M 228.367188 339.808594 L 264.375 339.808594 L 264.375 375 L 228.367188 375 Z M 228.367188 339.808594 "/></clipPath><clipPath id="355ab5f730"><path d="M 226.285156 367.246094 L 264.375 367.246094 L 264.375 375 L 226.285156 375 Z M 226.285156 367.246094 "/></clipPath><clipPath id="e2bd12727a"><path d="M 110.625 339.808594 L 147.90625 339.808594 L 147.90625 375 L 110.625 375 Z M 110.625 339.808594 "/></clipPath></defs><g id="1b1fc34990"><g clip-rule="nonzero" clip-path="url(#26d8c3d11b)"><path style=" stroke:none;fill-rule:nonzero;fill:#000000;fill-opacity:1;" d="M 215.019531 166.304688 L 213.457031 167.867188 L 219.4375 173.84375 L 221.09375 172.1875 L 225.160156 176.25 L 226.925781 174.59375 L 230.351562 178.015625 L 228.609375 179.796875 L 234.46875 180.570312 L 233.582031 174.710938 L 231.894531 176.4375 L 226.976562 171.515625 L 225.207031 173.175781 L 221.09375 169.058594 L 219.4375 170.71875 Z M 213.46875 172.945312 L 213.46875 187.3125 L 215.675781 187.3125 L 215.675781 172.945312 Z M 217.886719 176.261719 L 217.886719 187.3125 L 220.097656 187.3125 L 220.097656 176.261719 Z M 222.308594 178.46875 L 222.308594 187.3125 L 224.519531 187.3125 L 224.519531 178.46875 Z M 226.730469 181.785156 L 226.730469 187.3125 L 228.941406 187.3125 L 228.941406 181.785156 Z M 231.152344 183.996094 L 231.152344 187.3125 L 233.363281 187.3125 L 233.363281 183.996094 Z M 231.152344 183.996094 "/></g><path style=" stroke:none;fill-rule:nonzero;fill:#fbc424;fill-opacity:1;" d="M 145.757812 339.8125 L 231.167969 339.8125 L 231.167969 300.988281 L 145.757812 300.988281 Z M 145.757812 339.8125 "/><path style=" stroke:none;fill-rule:nonzero;fill:#f9a824;fill-opacity:1;" d="M 145.757812 305.199219 C 147.433594 306.078125 149.148438 306.75 149.753906 306.878906 C 153.90625 307.746094 158.359375 307.675781 162.574219 308.261719 C 163.832031 308.433594 176.046875 310.09375 176.046875 311 C 186.605469 313.984375 196.78125 319.40625 203.601562 327.996094 C 206.460938 331.597656 208.652344 335.640625 210.613281 339.8125 L 231.167969 339.8125 L 231.167969 300.988281 L 145.757812 300.988281 L 145.757812 305.199219 "/><path style=" stroke:none;fill-rule:nonzero;fill:#fcd245;fill-opacity:1;" d="M 145.757812 326.0625 L 145.757812 322.746094 C 149.171875 317.613281 152.75 312.59375 156.496094 307.703125 C 157.21875 307.753906 157.941406 307.804688 158.660156 307.859375 C 154.242188 313.84375 149.941406 319.914062 145.757812 326.0625 "/><path style=" stroke:none;fill-rule:nonzero;fill:#fabb43;fill-opacity:1;" d="M 158.660156 307.859375 C 157.941406 307.804688 157.21875 307.753906 156.496094 307.703125 C 157.101562 306.90625 157.714844 306.121094 158.328125 305.332031 L 160.414062 305.5 C 159.828125 306.285156 159.242188 307.070312 158.660156 307.859375 "/><path style=" stroke:none;fill-rule:nonzero;fill:#fcd245;fill-opacity:1;" d="M 186.230469 339.8125 L 175.46875 339.8125 C 179.03125 331.457031 182.8125 323.195312 186.816406 315.039062 C 190.425781 316.773438 193.847656 318.863281 196.941406 321.34375 C 193.664062 327.664062 190.089844 333.828125 186.230469 339.8125 "/><path style=" stroke:none;fill-rule:nonzero;fill:#fabb43;fill-opacity:1;" d="M 196.941406 321.34375 C 193.847656 318.863281 190.425781 316.773438 186.816406 315.039062 C 187.992188 312.644531 189.1875 310.257812 190.398438 307.886719 L 202.925781 308.882812 C 201.058594 313.09375 199.0625 317.25 196.941406 321.34375 "/><path style=" stroke:none;fill-rule:nonzero;fill:#fcd245;fill-opacity:1;" d="M 162.421875 339.8125 L 150.925781 339.8125 C 157.199219 329.660156 163.472656 319.503906 169.746094 309.347656 C 172.972656 309.902344 176.046875 310.542969 176.046875 311 C 177.292969 311.351562 178.53125 311.738281 179.761719 312.160156 C 174.246094 321.546875 168.597656 330.855469 162.421875 339.8125 "/><path style=" stroke:none;fill-rule:nonzero;fill:#fabb43;fill-opacity:1;" d="M 179.761719 312.160156 C 178.53125 311.738281 177.292969 311.351562 176.046875 311 C 176.046875 310.542969 172.972656 309.902344 169.746094 309.347656 C 170.34375 308.382812 170.941406 307.414062 171.539062 306.449219 C 171.554688 306.429688 171.566406 306.40625 171.578125 306.386719 L 182.625 307.265625 C 181.671875 308.898438 180.71875 310.53125 179.761719 312.160156 "/><path style=" stroke:none;fill-rule:nonzero;fill:#fbc424;fill-opacity:1;" d="M 233.078125 71.847656 C 232.894531 68.433594 231.859375 64.894531 229.359375 62.566406 C 227.964844 61.265625 226.210938 60.429688 224.496094 59.59375 C 219.234375 57.035156 214.054688 54.308594 208.96875 51.410156 C 205.84375 49.632812 202.453125 47.378906 201.78125 43.84375 C 201.378906 41.71875 201.941406 39.613281 202.261719 37.597656 C 205.449219 33.320312 207.421875 27.40625 207.421875 20.867188 C 207.421875 7.910156 206.007812 0.113281 190.210938 0.0078125 C 174.414062 0.113281 173.003906 7.910156 173.003906 20.867188 C 173.003906 27.40625 174.976562 33.320312 178.160156 37.597656 C 178.484375 39.613281 179.042969 41.71875 178.640625 43.84375 C 177.972656 47.378906 174.578125 49.632812 171.453125 51.410156 C 166.371094 54.308594 161.191406 57.035156 155.929688 59.59375 C 154.214844 60.429688 152.457031 61.265625 151.0625 62.566406 C 148.5625 64.894531 147.53125 68.433594 147.34375 71.847656 C 147.160156 75.257812 147.707031 78.664062 147.835938 82.078125 C 148.027344 87.023438 147.34375 91.980469 147.597656 96.925781 C 147.933594 103.40625 149.867188 109.683594 151.789062 115.882812 C 152.714844 118.867188 153.683594 121.933594 155.671875 124.34375 C 157.664062 126.75 160.953125 128.363281 163.945312 127.464844 C 165.222656 132.890625 164.667969 138.410156 163.835938 143.964844 C 160.289062 159.730469 159.867188 176.191406 162.640625 192.113281 C 163.773438 198.613281 166.558594 205.457031 166.875 212.046875 C 167.269531 220.351562 165.269531 228.273438 165.988281 236.558594 C 166.953125 247.683594 173.632812 258.074219 174.589844 269.203125 C 175.53125 280.179688 171.917969 291.476562 164.777344 299.871094 C 168.816406 300.179688 172.859375 300.492188 176.902344 300.804688 C 181.5625 301.164062 184.636719 301.320312 188.042969 298.121094 C 188.976562 297.246094 189.675781 296.195312 190.210938 295.042969 C 190.75 296.195312 191.449219 297.246094 192.378906 298.121094 C 195.789062 301.320312 198.421875 301.164062 203.082031 300.804688 C 207.125 300.492188 211.167969 300.179688 215.210938 299.871094 C 208.066406 291.476562 204.453125 280.179688 205.394531 269.203125 C 206.351562 258.074219 213.472656 247.683594 214.4375 236.558594 C 215.15625 228.273438 214.277344 219.949219 214.675781 211.644531 C 214.988281 205.050781 216.648438 198.613281 217.78125 192.113281 C 220.558594 176.191406 220.136719 159.730469 216.589844 143.964844 C 215.757812 138.410156 215.199219 132.890625 216.480469 127.464844 C 219.472656 128.363281 222.761719 126.75 224.75 124.34375 C 226.742188 121.933594 227.710938 118.867188 228.632812 115.882812 C 230.554688 109.683594 232.488281 103.40625 232.824219 96.925781 C 233.078125 91.980469 232.394531 87.023438 232.585938 82.078125 C 232.71875 78.664062 233.265625 75.257812 233.078125 71.847656 "/><path style=" stroke:none;fill-rule:nonzero;fill:#f9a824;fill-opacity:1;" d="M 233.121094 71.871094 C 232.933594 68.460938 231.902344 64.917969 229.402344 62.589844 C 228.007812 61.289062 226.253906 60.453125 224.539062 59.621094 C 219.273438 57.0625 214.097656 54.332031 209.011719 51.4375 C 205.886719 49.65625 202.496094 47.402344 201.824219 43.867188 C 201.421875 41.746094 201.984375 39.640625 202.304688 37.625 C 205.492188 33.347656 207.460938 27.429688 207.460938 20.890625 C 207.460938 8.632812 206.191406 0.996094 192.671875 0.121094 C 193.574219 3.28125 196.386719 6.632812 197.414062 9.65625 C 198.808594 13.753906 199.394531 18.128906 199.21875 22.449219 C 198.871094 31.066406 195.425781 39.667969 188.953125 45.5 C 194.53125 50.738281 201.421875 54.574219 208.816406 56.550781 C 215.988281 58.46875 224.863281 59.59375 227.839844 66.394531 C 229.105469 69.28125 228.910156 72.574219 228.691406 75.722656 C 228.320312 81.054688 227.949219 86.386719 227.574219 91.71875 C 226.8125 102.660156 224.621094 115.722656 214.535156 120.03125 C 209.984375 121.972656 203.988281 122.039062 201.460938 126.292969 C 198.984375 130.453125 201.601562 135.628906 203.636719 140.023438 C 209.125 151.855469 210.28125 165.167969 211.359375 178.167969 C 211.980469 185.667969 212.59375 193.296875 211.050781 200.664062 C 210.160156 204.90625 208.566406 208.980469 207.765625 213.242188 C 206.59375 219.5 207.160156 225.957031 206.40625 232.28125 C 204.84375 245.382812 197.660156 257.582031 197.789062 270.777344 C 197.902344 282.355469 204.179688 293.660156 213.84375 300.003906 C 214.3125 299.96875 214.78125 299.929688 215.25 299.894531 C 208.109375 291.503906 204.496094 280.203125 205.4375 269.226562 C 206.394531 258.097656 213.515625 247.710938 214.480469 236.582031 C 215.199219 228.300781 214.320312 219.976562 214.714844 211.667969 C 215.03125 205.078125 216.691406 198.636719 217.824219 192.136719 C 220.597656 176.21875 220.175781 159.753906 216.628906 143.992188 C 215.800781 138.433594 215.242188 132.917969 216.523438 127.492188 C 219.515625 128.386719 222.804688 126.777344 224.792969 124.367188 C 226.785156 121.960938 227.753906 118.890625 228.675781 115.910156 C 230.597656 109.710938 232.53125 103.433594 232.867188 96.949219 C 233.121094 92.003906 232.4375 87.050781 232.628906 82.101562 C 232.761719 78.6875 233.304688 75.285156 233.121094 71.871094 "/><path style=" stroke:none;fill-rule:nonzero;fill:#ee981e;fill-opacity:1;" d="M 207.460938 20.886719 C 207.460938 11.90625 206.773438 5.410156 201.09375 2.234375 C 204.898438 5.746094 205.414062 11.652344 205.414062 19.414062 C 205.414062 25.953125 203.445312 31.871094 200.257812 36.148438 C 199.933594 38.164062 199.375 40.269531 199.777344 42.394531 C 200.316406 45.246094 202.632812 47.261719 205.148438 48.871094 C 203.515625 47.527344 202.210938 45.914062 201.824219 43.867188 C 201.421875 41.742188 201.984375 39.636719 202.304688 37.621094 C 205.492188 33.34375 207.460938 27.425781 207.460938 20.886719 "/><path style=" stroke:none;fill-rule:nonzero;fill:#ee981e;fill-opacity:1;" d="M 233.121094 71.867188 C 232.933594 68.457031 231.902344 64.914062 229.402344 62.585938 C 228.75 61.980469 228.019531 61.476562 227.25 61.023438 C 227.285156 61.054688 227.324219 61.082031 227.355469 61.113281 C 229.855469 63.441406 230.886719 66.984375 231.074219 70.394531 C 231.257812 73.804688 230.710938 77.210938 230.582031 80.625 C 230.390625 85.574219 231.074219 90.527344 230.820312 95.472656 C 230.484375 101.957031 228.550781 108.234375 226.628906 114.433594 C 225.703125 117.417969 224.734375 120.484375 222.746094 122.890625 C 220.753906 125.300781 217.46875 126.910156 214.476562 126.015625 C 213.195312 131.441406 213.753906 136.960938 214.582031 142.515625 C 218.128906 158.277344 218.550781 174.742188 215.777344 190.660156 C 214.644531 197.160156 212.984375 203.601562 212.667969 210.191406 C 212.273438 218.5 213.152344 226.824219 212.433594 235.105469 C 211.46875 246.234375 204.347656 256.621094 203.390625 267.75 C 202.445312 278.726562 206.0625 290.027344 213.203125 298.417969 C 212.734375 298.453125 212.265625 298.492188 211.796875 298.527344 C 211.753906 298.5 211.714844 298.472656 211.675781 298.445312 C 212.378906 298.988281 213.097656 299.511719 213.84375 300 C 214.3125 299.964844 214.78125 299.925781 215.25 299.890625 C 208.109375 291.5 204.496094 280.199219 205.4375 269.222656 C 206.394531 258.09375 213.515625 247.707031 214.480469 236.578125 C 215.199219 228.296875 214.320312 219.96875 214.714844 211.664062 C 215.03125 205.074219 216.691406 198.632812 217.824219 192.132812 C 220.597656 176.214844 220.175781 159.75 216.628906 143.988281 C 215.800781 138.429688 215.242188 132.914062 216.523438 127.488281 C 219.515625 128.382812 222.804688 126.773438 224.792969 124.363281 C 226.785156 121.957031 227.753906 118.890625 228.675781 115.90625 C 230.597656 109.707031 232.53125 103.429688 232.867188 96.945312 C 233.121094 92 232.4375 87.046875 232.628906 82.097656 C 232.761719 78.683594 233.304688 75.277344 233.121094 71.867188 "/><path style=" stroke:none;fill-rule:nonzero;fill:#ee981e;fill-opacity:1;" d="M 179.226562 18.527344 C 177.375 19.742188 177.535156 22.914062 177.535156 22.914062 L 184.828125 23.335938 L 186.941406 21.433594 C 186.941406 21.433594 185.992188 19.898438 185.039062 19 C 184.089844 18.101562 181.074219 17.308594 179.226562 18.527344 "/><path style=" stroke:none;fill-rule:nonzero;fill:#ee981e;fill-opacity:1;" d="M 189.304688 34.855469 C 184.625 34.855469 183.699219 36.230469 183.699219 36.230469 L 184.492188 36.761719 C 184.492188 36.761719 186.449219 36.039062 189.175781 36.039062 C 191.898438 36.039062 193.824219 36.625 193.824219 36.625 L 194.53125 36.019531 C 194.53125 36.019531 193.988281 34.855469 189.304688 34.855469 "/><path style=" stroke:none;fill-rule:nonzero;fill:#ee981e;fill-opacity:1;" d="M 171.6875 89.945312 C 169.644531 89.90625 167.5 89.71875 165.8125 88.574219 C 163.773438 87.1875 162.917969 84.78125 162.054688 82.585938 C 161.597656 81.421875 161.152344 80.242188 160.507812 79.171875 C 159.859375 78.09375 158.730469 77.648438 158.101562 76.660156 C 160.632812 80.773438 162.335938 85.320312 162.917969 90.128906 C 162.988281 90.707031 163.050781 91.308594 163.371094 91.796875 C 164.007812 92.753906 165.351562 92.867188 166.5 92.804688 C 171.128906 92.550781 175.578125 91.019531 179.960938 89.503906 C 177.21875 89.851562 174.449219 90 171.6875 89.945312 "/><path style=" stroke:none;fill-rule:nonzero;fill:#ee981e;fill-opacity:1;" d="M 161.617188 90.210938 C 161.539062 92.101562 162.207031 93.929688 161.972656 95.867188 C 161.667969 98.378906 160.492188 100.800781 158.613281 102.511719 C 157.796875 103.257812 156.863281 103.875 156.082031 104.660156 C 155.304688 105.445312 154.667969 106.460938 154.664062 107.566406 C 156.226562 104.789062 159.609375 103.703125 162.683594 102.851562 C 163.371094 102.660156 162.933594 96.816406 162.867188 96.113281 C 162.683594 94.195312 162.421875 91.976562 161.617188 90.210938 "/><path style=" stroke:none;fill-rule:nonzero;fill:#ee981e;fill-opacity:1;" d="M 211.832031 87.367188 C 210.6875 87.847656 209.425781 87.933594 208.191406 88.019531 C 205.53125 88.195312 202.871094 88.375 200.210938 88.554688 C 202.90625 89.4375 206.160156 89.054688 208.265625 90.964844 C 209.230469 91.839844 209.785156 93.078125 210.21875 94.3125 C 211.398438 97.695312 211.855469 101.285156 212.128906 104.859375 C 212.246094 106.328125 212.222656 108.054688 211.050781 108.949219 C 213.640625 107.359375 214.972656 104.296875 215.476562 101.296875 C 215.980469 98.296875 215.808594 95.222656 216.195312 92.207031 C 216.449219 90.246094 216.933594 88.324219 217.417969 86.40625 C 218.203125 83.316406 219.183594 80.203125 219.761719 77.070312 C 218.398438 79.703125 217.207031 82.230469 215.273438 84.539062 C 214.3125 85.6875 213.214844 86.792969 211.832031 87.367188 "/><path style=" stroke:none;fill-rule:nonzero;fill:#ee981e;fill-opacity:1;" d="M 215.625 130.296875 C 214.871094 129.285156 211.835938 128.519531 211.242188 129.914062 C 210.921875 130.664062 211.816406 131.5 211.5 132.335938 C 211.179688 133.183594 210.1875 133.867188 209.21875 134.34375 C 208.128906 134.878906 206.902344 135.25 205.78125 135.753906 C 203.871094 136.617188 202.292969 137.867188 201.28125 139.328125 C 199.996094 141.191406 199.644531 143.316406 199.34375 145.390625 C 199.046875 147.464844 198.761719 149.585938 197.589844 151.488281 C 196.417969 153.390625 194.160156 155.074219 191.328125 155.390625 C 193.695312 155.578125 196.15625 154.875 197.71875 153.570312 C 200.425781 151.304688 200.09375 147.925781 201.351562 145.066406 C 202.816406 141.734375 206.507812 139.121094 210.6875 137.394531 C 212.160156 136.785156 213.757812 136.242188 214.78125 135.261719 C 215.855469 134.226562 216.132812 132.859375 216.027344 131.566406 C 215.992188 131.128906 215.910156 130.679688 215.625 130.296875 "/><path style=" stroke:none;fill-rule:nonzero;fill:#ee981e;fill-opacity:1;" d="M 190.8125 158.921875 C 190.835938 154.972656 188.296875 155.054688 185.652344 153.484375 C 183.71875 152.34375 182.636719 150.3125 180.988281 148.8125 C 186.25 167.917969 189.339844 186.710938 187.628906 206.714844 C 187.46875 208.609375 187.214844 210.636719 186.015625 212.046875 C 184.410156 213.933594 181.710938 214.058594 179.320312 214.050781 C 178.667969 215.488281 179.453125 217.234375 180.550781 218.324219 C 181.648438 219.414062 183.042969 220.125 184.097656 221.257812 C 186.4375 223.757812 186.648438 227.664062 186.714844 231.195312 C 187.152344 254.15625 187.589844 277.121094 188.027344 300.089844 C 190.066406 299.773438 191.617188 297.832031 192.230469 295.734375 C 192.839844 293.636719 192.695312 291.382812 192.554688 289.191406 C 189.769531 245.855469 190.550781 202.359375 190.8125 158.921875 "/><path style=" stroke:none;fill-rule:nonzero;fill:#f9a824;fill-opacity:1;" d="M 197.175781 106.078125 C 196.417969 105.800781 195.585938 105.875 194.785156 105.972656 C 189.90625 106.554688 185.101562 107.75 180.519531 109.523438 C 179.761719 109.816406 179 110.128906 178.316406 110.578125 C 176.910156 111.5 175.878906 113.042969 175.769531 114.722656 C 175.632812 116.8125 177.21875 119.457031 179.527344 118.835938 C 181.730469 118.242188 183.679688 116.554688 184.660156 114.507812 C 185.136719 113.507812 185.425781 112.390625 186.148438 111.550781 C 187.242188 110.273438 189.054688 109.9375 190.722656 109.773438 C 192.179688 109.628906 193.640625 109.5625 195.101562 109.566406 C 195.800781 109.570312 196.515625 109.585938 197.171875 109.355469 C 197.828125 109.125 198.425781 108.578125 198.5 107.886719 C 198.582031 107.085938 197.933594 106.351562 197.175781 106.078125 "/><path style=" stroke:none;fill-rule:nonzero;fill:#ee981e;fill-opacity:1;" d="M 195.570312 96.828125 C 194.660156 96.410156 194.085938 95.496094 193.28125 94.898438 C 191.417969 93.511719 188.777344 94.074219 186.628906 94.960938 C 185.070312 95.601562 183.539062 96.40625 182.394531 97.640625 C 181.542969 98.558594 180.945312 99.675781 180.359375 100.785156 C 178.332031 104.613281 176.324219 108.503906 173.496094 111.785156 C 169.917969 115.9375 165.070312 118.984375 159.773438 120.402344 C 157.558594 120.992188 154.871094 121.183594 153.292969 119.515625 C 153.902344 122.8125 156.617188 125.714844 159.640625 127.039062 C 161.425781 127.820312 163.527344 128.003906 165.328125 127.257812 C 168 126.152344 169.472656 123.363281 171.382812 121.1875 C 172.375 120.0625 173.515625 119.074219 174.652344 118.09375 C 175.859375 117.054688 177.066406 116.011719 178.273438 114.96875 C 179.980469 113.496094 181.707031 112.007812 183.695312 110.9375 C 185.484375 109.972656 187.464844 109.359375 189.488281 109.148438 C 191.160156 108.976562 192.851562 109.070312 194.515625 108.84375 C 196.179688 108.617188 197.878906 108.007812 198.953125 106.71875 C 199.851562 105.640625 200.210938 104.214844 200.386719 102.820312 C 200.6875 100.507812 200.566406 98.144531 200.035156 95.871094 C 198.664062 96.671875 197.011719 97.488281 195.570312 96.828125 "/><path style=" stroke:none;fill-rule:nonzero;fill:#ee981e;fill-opacity:1;" d="M 216.347656 121.292969 C 213.492188 120.804688 210.953125 119.238281 208.246094 118.203125 C 207.171875 117.792969 206.042969 117.464844 204.890625 117.492188 C 203.40625 117.53125 202.011719 118.164062 200.628906 118.699219 C 197.09375 120.0625 193.335938 120.855469 189.550781 121.035156 C 188.410156 121.085938 187.117188 121.023438 186.355469 120.171875 C 185.855469 119.613281 185.703125 118.832031 185.609375 118.089844 C 185.378906 115.996094 185.554688 114.011719 185.667969 111.933594 C 184.875 112.035156 184.484375 111.933594 183.769531 112.28125 C 182.878906 112.714844 182.019531 113.597656 181.230469 114.191406 C 179.578125 115.441406 177.933594 116.703125 176.300781 117.972656 C 177.519531 119.1875 178.957031 120.179688 180.527344 120.890625 C 181.9375 121.527344 183.4375 121.929688 184.933594 122.328125 C 188.792969 123.363281 192.695312 124.402344 196.6875 124.578125 C 199.375 124.695312 202.070312 124.417969 204.757812 124.527344 C 207.257812 124.632812 209.742188 125.074219 212.125 125.84375 C 214.472656 126.597656 215.53125 128.660156 219.714844 128.023438 C 222.0625 127.667969 224.460938 125.59375 225.71875 123.582031 C 226.976562 121.566406 227.757812 119.105469 228.394531 116.820312 C 225.996094 120.304688 220.515625 122.003906 216.347656 121.292969 "/><path style=" stroke:none;fill-rule:nonzero;fill:#fbda5b;fill-opacity:1;" d="M 152.613281 78.796875 C 152.457031 78.796875 152.300781 78.777344 152.152344 78.742188 C 151.128906 78.507812 150.355469 77.613281 150.011719 76.628906 C 149.664062 75.640625 149.675781 74.5625 149.757812 73.519531 C 149.96875 70.851562 150.613281 68.167969 152.027344 65.894531 C 153.664062 63.253906 156.546875 61.679688 158.992188 59.875 C 160.503906 58.761719 162.242188 57.890625 163.984375 57.195312 C 165.660156 56.527344 167.769531 56.460938 169.347656 55.71875 C 166.398438 57.109375 163.496094 58.6875 161.054688 60.847656 C 158.609375 63.007812 156.628906 65.800781 155.890625 68.980469 C 155.226562 71.855469 155.566406 75.007812 154.195312 77.621094 C 153.976562 78.039062 153.699219 78.449219 153.277344 78.65625 C 153.070312 78.753906 152.84375 78.796875 152.613281 78.796875 "/><path style=" stroke:none;fill-rule:nonzero;fill:#fbda5b;fill-opacity:1;" d="M 175.726562 18.953125 C 175.140625 15.050781 175.746094 10.980469 177.441406 7.421875 C 177.921875 6.417969 178.5 5.4375 179.347656 4.71875 C 180.097656 4.078125 181.019531 3.679688 181.9375 3.320312 C 182.789062 2.984375 185.972656 1.96875 188.28125 1.96875 C 189.890625 1.96875 191.074219 2.464844 190.738281 4.03125 C 190.527344 5.015625 189.609375 5.710938 188.648438 6.015625 C 187.691406 6.324219 186.664062 6.328125 185.667969 6.460938 C 182.753906 6.851562 180.015625 8.40625 178.183594 10.707031 C 176.355469 13.007812 175.457031 16.027344 175.726562 18.953125 "/><path style=" stroke:none;fill-rule:nonzero;fill:#f9a824;fill-opacity:1;" d="M 193.421875 20.273438 C 192.707031 20.507812 192.058594 21.519531 191.648438 22.101562 C 190.632812 23.542969 189.984375 25.246094 189.8125 27.003906 C 189.722656 27.90625 189.753906 28.816406 189.785156 29.722656 C 189.808594 30.308594 189.832031 30.914062 190.070312 31.453125 C 190.3125 31.988281 190.824219 32.449219 191.414062 32.445312 C 192.285156 29.933594 191.597656 26.894531 193.179688 24.761719 C 193.585938 24.21875 194.121094 23.773438 194.542969 23.238281 C 194.96875 22.707031 195.289062 22.023438 195.15625 21.355469 C 195.011719 20.625 194.140625 20.03125 193.421875 20.273438 "/><path style=" stroke:none;fill-rule:nonzero;fill:#ee981e;fill-opacity:1;" d="M 199.960938 18.382812 C 198.070312 17.238281 195.085938 18.140625 194.167969 19.070312 C 193.25 20.003906 192.355469 21.570312 192.355469 21.570312 L 194.539062 23.394531 L 201.8125 22.707031 C 201.8125 22.707031 201.855469 19.53125 199.960938 18.382812 "/><path style=" stroke:none;fill-rule:nonzero;fill:#ee981e;fill-opacity:1;" d="M 188.6875 31.105469 C 188.15625 31.050781 187.898438 30.734375 187.898438 30.734375 L 186.519531 32.480469 L 191.433594 32.480469 L 189.847656 30.734375 C 189.847656 30.734375 189.214844 31.15625 188.6875 31.105469 "/><path style=" stroke:none;fill-rule:nonzero;fill:#d5711c;fill-opacity:1;" d="M 180.878906 23.988281 C 183.792969 24.175781 184.828125 23.335938 184.828125 23.335938 L 177.535156 22.914062 C 177.535156 22.914062 177.902344 23.800781 180.878906 23.988281 "/><path style=" stroke:none;fill-rule:nonzero;fill:#d5711c;fill-opacity:1;" d="M 197.996094 23.953125 C 200.910156 23.726562 201.8125 22.746094 201.8125 22.746094 L 194.53125 23.363281 C 194.53125 23.363281 195.023438 24.1875 197.996094 23.953125 "/><path style=" stroke:none;fill-rule:nonzero;fill:#fbda5b;fill-opacity:1;" d="M 165.140625 78.09375 C 164.503906 78.09375 163.878906 77.945312 163.332031 77.601562 C 162.917969 77.339844 162.5625 76.972656 162.371094 76.523438 C 162.027344 75.726562 162.238281 74.792969 162.617188 74.011719 C 163.175781 72.855469 164.066406 71.898438 165.027344 71.046875 C 167.953125 68.460938 171.539062 66.792969 175.199219 65.527344 C 176.898438 64.9375 178.871094 64.066406 180.683594 63.980469 C 180.757812 63.980469 180.832031 63.976562 180.902344 63.976562 C 182.226562 63.976562 183.554688 64.496094 184.882812 64.566406 C 179.347656 65.824219 174.804688 69.28125 171.285156 73.652344 C 170.261719 74.921875 169.292969 76.285156 167.941406 77.195312 C 167.121094 77.742188 166.113281 78.09375 165.140625 78.09375 "/><path style=" stroke:none;fill-rule:nonzero;fill:#ee981e;fill-opacity:1;" d="M 201.039062 213.988281 C 200.859375 213.972656 200.667969 213.953125 200.515625 214.042969 C 200.296875 214.167969 200.238281 214.453125 200.203125 214.703125 C 199.792969 217.535156 199.386719 220.371094 198.980469 223.207031 C 201.941406 222.414062 205.339844 223.660156 207.089844 226.179688 C 206.574219 220.421875 208.171875 214.929688 209.660156 209.441406 C 208.027344 212.449219 204.472656 214.28125 201.039062 213.988281 "/><path style=" stroke:none;fill-rule:nonzero;fill:#fbda5b;fill-opacity:1;" d="M 169.0625 206.695312 C 165.746094 191.605469 163.570312 176.167969 164.152344 160.726562 C 164.234375 158.492188 164.339844 152.296875 167.027344 151.335938 C 167.445312 151.183594 167.804688 151.117188 168.109375 151.117188 C 170.960938 151.117188 169.160156 157.117188 168.824219 158.398438 C 164.730469 174.105469 166.046875 190.746094 169.0625 206.695312 "/><path style=" stroke:none;fill-rule:nonzero;fill:#fbda5b;fill-opacity:1;" d="M 175.125 262.773438 C 171.46875 252.441406 167.769531 241.898438 167.492188 230.945312 C 167.445312 228.960938 167.519531 226.921875 168.304688 225.105469 C 168.90625 223.714844 170.726562 221.5 172.558594 221.5 C 172.824219 221.5 173.089844 221.546875 173.351562 221.648438 C 175.667969 222.546875 174.164062 225.410156 173.429688 226.949219 C 170.777344 232.46875 170.257812 238.824219 170.917969 244.914062 C 171.574219 251.003906 173.355469 256.910156 175.125 262.773438 "/><path style=" stroke:none;fill-rule:nonzero;fill:#f9a824;fill-opacity:1;" d="M 175.726562 33.679688 L 175.738281 33.703125 Z M 175.726562 33.679688 "/><path style=" stroke:none;fill-rule:nonzero;fill:#f9a824;fill-opacity:1;" d="M 185.003906 42.859375 C 183.609375 41.878906 182.164062 40.957031 180.882812 39.828125 C 179.839844 38.90625 178.917969 37.851562 178 36.804688 C 177.265625 35.960938 176.535156 35.101562 175.984375 34.136719 C 176.035156 34.261719 176.085938 34.390625 176.136719 34.515625 L 175.738281 33.703125 C 176.230469 35.539062 177.085938 37.261719 177.949219 38.957031 C 178.511719 40.0625 179.078125 41.160156 179.703125 42.230469 C 180.398438 43.417969 181.296875 44.65625 182.636719 44.96875 C 183.4375 45.15625 184.265625 44.980469 185.066406 44.804688 C 185.289062 44.757812 185.519531 44.703125 185.679688 44.546875 C 185.929688 44.300781 185.917969 43.882812 185.75 43.578125 C 185.578125 43.273438 185.289062 43.0625 185.003906 42.859375 "/><path style=" stroke:none;fill-rule:nonzero;fill:#f9a824;fill-opacity:1;" d="M 175.613281 33.226562 C 175.648438 33.382812 175.691406 33.539062 175.734375 33.695312 C 175.808594 33.847656 175.898438 33.988281 175.984375 34.136719 C 175.859375 33.832031 175.734375 33.527344 175.613281 33.226562 "/><path style=" stroke:none;fill-rule:nonzero;fill:#f9a824;fill-opacity:1;" d="M 175.984375 34.136719 C 175.898438 33.988281 175.808594 33.847656 175.734375 33.695312 L 175.738281 33.703125 L 176.136719 34.515625 C 176.085938 34.390625 176.035156 34.261719 175.984375 34.136719 "/><path style=" stroke:none;fill-rule:nonzero;fill:#ee981e;fill-opacity:1;" d="M 194.953125 42.59375 C 194.78125 42.550781 194.609375 42.507812 194.429688 42.507812 C 194.195312 42.507812 193.964844 42.585938 193.738281 42.65625 C 191.042969 43.53125 188.09375 43.617188 185.347656 42.910156 C 185.117188 42.847656 184.886719 42.78125 184.648438 42.777344 C 184.46875 42.773438 184.292969 42.800781 184.117188 42.824219 C 183.355469 42.925781 182.582031 42.945312 181.816406 42.882812 C 181.3125 42.84375 180.363281 42.867188 179.984375 42.476562 C 180.484375 44.113281 182.265625 45.003906 183.683594 45.683594 C 184.367188 45.984375 185.0625 46.257812 185.773438 46.46875 C 188.113281 47.15625 190.644531 47.171875 192.992188 46.511719 C 195.335938 45.847656 197.488281 44.511719 199.117188 42.699219 C 197.742188 42.945312 196.316406 42.910156 194.953125 42.59375 "/><path style=" stroke:none;fill-rule:nonzero;fill:#fbda5b;fill-opacity:1;" d="M 162.722656 104.960938 C 162.816406 104.933594 162.90625 104.910156 163 104.882812 C 162.90625 104.910156 162.816406 104.9375 162.722656 104.960938 M 163 104.882812 C 164.578125 104.410156 166.226562 103.277344 167.664062 102.519531 C 169.011719 101.8125 170.402344 101.269531 171.664062 100.398438 C 174.367188 98.527344 176.503906 95.976562 178.941406 93.792969 C 180.304688 92.570312 181.769531 91.441406 183.425781 90.640625 C 185.445312 89.671875 187.679688 89.238281 189.921875 89.238281 C 191.152344 89.238281 192.386719 89.371094 193.589844 89.613281 C 194.6875 89.835938 195.859375 90.210938 196.476562 91.148438 C 197.09375 92.078125 196.703125 93.675781 195.59375 93.8125 C 195.539062 93.816406 195.484375 93.820312 195.429688 93.820312 C 194.796875 93.820312 194.226562 93.382812 193.667969 93.058594 C 192.273438 92.253906 190.636719 92.089844 189.007812 92.089844 C 188.597656 92.089844 188.191406 92.097656 187.785156 92.113281 C 186.457031 92.15625 185.089844 92.226562 183.867188 92.75 C 182.769531 93.21875 181.851562 94.023438 180.941406 94.792969 C 175.652344 99.25 169.65625 103.023438 163 104.882812 "/><path style=" stroke:none;fill-rule:nonzero;fill:#fbda5b;fill-opacity:1;" d="M 190.042969 115.632812 C 189.808594 115.632812 189.570312 115.609375 189.328125 115.566406 C 188.957031 115.496094 188.566406 115.34375 188.371094 115.019531 C 188.238281 114.804688 188.210938 114.542969 188.207031 114.289062 C 188.160156 112.195312 188.839844 111.976562 190.6875 111.710938 C 192.382812 111.46875 194.078125 111.238281 195.777344 111.019531 C 197.453125 110.804688 199.148438 110.59375 200.832031 110.59375 C 201.703125 110.59375 202.570312 110.652344 203.433594 110.789062 C 207.300781 111.410156 210.878906 113.667969 214.777344 113.667969 C 214.878906 113.667969 214.980469 113.667969 215.082031 113.664062 C 214.917969 113.667969 214.757812 113.667969 214.597656 113.667969 C 212.40625 113.667969 210.230469 113.222656 208.0625 112.769531 C 205.894531 112.320312 203.730469 111.871094 201.558594 111.871094 C 200.996094 111.871094 200.433594 111.902344 199.871094 111.96875 C 198.34375 112.152344 196.851562 112.617188 195.488281 113.328125 C 193.726562 114.25 191.960938 115.632812 190.042969 115.632812 "/><path style=" stroke:none;fill-rule:nonzero;fill:#fbc424;fill-opacity:1;" d="M 233.554688 294.207031 L 143.960938 294.207031 C 142.898438 294.207031 142.039062 295.066406 142.039062 296.128906 L 142.039062 301.652344 C 142.039062 302.714844 142.898438 303.574219 143.960938 303.574219 L 233.554688 303.574219 C 234.617188 303.574219 235.476562 302.714844 235.476562 301.652344 L 235.476562 296.128906 C 235.476562 295.066406 234.617188 294.207031 233.554688 294.207031 "/><path style=" stroke:none;fill-rule:nonzero;fill:#f9a824;fill-opacity:1;" d="M 233.328125 294.207031 L 197.519531 294.207031 L 197.519531 303.574219 L 233.328125 303.574219 C 234.515625 303.574219 235.476562 302.609375 235.476562 301.425781 L 235.476562 296.355469 C 235.476562 295.171875 234.515625 294.207031 233.328125 294.207031 "/><path style=" stroke:none;fill-rule:nonzero;fill:#ee981e;fill-opacity:1;" d="M 214.105469 303.640625 L 222.867188 303.640625 L 222.867188 294.207031 L 214.105469 294.207031 L 214.105469 303.640625 "/><path style=" stroke:none;fill-rule:nonzero;fill:#ee981e;fill-opacity:1;" d="M 225.976562 303.574219 L 228.746094 303.574219 L 228.746094 294.207031 L 225.976562 294.207031 L 225.976562 303.574219 "/><path style=" stroke:none;fill-rule:nonzero;fill:#ee981e;fill-opacity:1;" d="M 212.441406 339.8125 L 218.484375 339.8125 L 218.484375 303.574219 L 212.441406 303.574219 L 212.441406 339.8125 "/><path style=" stroke:none;fill-rule:nonzero;fill:#ee981e;fill-opacity:1;" d="M 221.316406 339.8125 L 224.339844 339.8125 L 224.339844 303.574219 L 221.316406 303.574219 L 221.316406 339.8125 "/><path style=" stroke:none;fill-rule:nonzero;fill:#f07a1c;fill-opacity:1;" d="M 145.757812 304.332031 L 231.167969 311.132812 L 231.167969 303.574219 L 145.757812 303.574219 L 145.757812 304.332031 "/><path style=" stroke:none;fill-rule:nonzero;fill:#fbda5b;fill-opacity:1;" d="M 179.753906 303.574219 L 167.046875 303.574219 C 168.882812 300.429688 170.753906 297.308594 172.664062 294.207031 L 186.398438 294.207031 C 185.898438 294.953125 185.386719 295.691406 184.867188 296.414062 C 183.160156 298.789062 181.363281 301.132812 179.753906 303.574219 M 175.109375 294.207031 L 169.40625 303.492188 L 173.425781 303.492188 L 179.304688 294.207031 L 175.109375 294.207031 "/><path style=" stroke:none;fill-rule:nonzero;fill:#fbda5b;fill-opacity:1;" d="M 154.980469 303.574219 L 144.21875 303.574219 C 146.152344 300.457031 148.074219 297.332031 149.992188 294.207031 L 161 294.207031 C 158.996094 297.328125 156.988281 300.453125 154.980469 303.574219 M 152.609375 294.207031 L 146.902344 303.492188 L 150.925781 303.492188 L 156.804688 294.207031 L 152.609375 294.207031 "/><path style=" stroke:none;fill-rule:nonzero;fill:#fceda4;fill-opacity:1;" d="M 150.925781 303.492188 L 146.902344 303.492188 L 152.609375 294.207031 L 156.804688 294.207031 L 150.925781 303.492188 "/><path style=" stroke:none;fill-rule:nonzero;fill:#fceda4;fill-opacity:1;" d="M 173.425781 303.492188 L 169.40625 303.492188 L 175.109375 294.207031 L 179.304688 294.207031 L 173.425781 303.492188 "/><g clip-rule="nonzero" clip-path="url(#bd71d7cb7d)"><path style=" stroke:none;fill-rule:nonzero;fill:#fab46d;fill-opacity:1;" d="M 259.621094 365.4375 C 256.988281 364.085938 253.398438 364.210938 251.21875 362.371094 C 249.15625 360.628906 249.164062 357.8125 247.859375 355.605469 C 245.859375 352.222656 244.175781 350.734375 239.757812 350.230469 C 237.152344 349.933594 233.894531 349.472656 233.175781 347.324219 C 232.609375 345.628906 234.09375 343.925781 234.152344 342.167969 C 234.183594 341.277344 233.839844 340.488281 233.277344 339.8125 L 141.722656 339.8125 C 141.160156 340.488281 140.820312 341.277344 140.847656 342.167969 C 140.910156 343.925781 142.390625 345.628906 141.824219 347.324219 C 141.105469 349.472656 137.851562 349.933594 135.246094 350.230469 C 130.824219 350.734375 129.140625 352.222656 127.144531 355.605469 C 125.839844 357.8125 125.847656 360.628906 123.78125 362.371094 C 121.601562 364.210938 118.011719 364.085938 115.378906 365.4375 C 111.734375 367.304688 110.898438 371.308594 110.625 375 L 264.375 375 C 264.101562 371.308594 263.265625 367.304688 259.621094 365.4375 "/></g><g clip-rule="nonzero" clip-path="url(#28915160e0)"><path style=" stroke:none;fill-rule:nonzero;fill:#f8a06a;fill-opacity:1;" d="M 259.621094 365.4375 C 256.988281 364.085938 253.398438 364.210938 251.21875 362.371094 C 249.15625 360.628906 249.164062 357.8125 247.859375 355.605469 C 245.859375 352.222656 244.175781 350.734375 239.757812 350.230469 C 237.152344 349.933594 233.894531 349.472656 233.175781 347.324219 C 232.609375 345.628906 234.09375 343.925781 234.152344 342.167969 C 234.183594 341.277344 233.839844 340.488281 233.277344 339.8125 L 206.390625 339.8125 C 206.566406 340.351562 206.570312 340.910156 206.3125 341.46875 C 205.777344 342.625 204.355469 343.035156 203.097656 343.246094 C 195.121094 344.59375 186.949219 343.300781 178.867188 343.664062 C 177.917969 343.707031 176.648438 344.148438 176.8125 345.085938 C 176.902344 345.617188 177.453125 345.925781 177.953125 346.132812 C 181.324219 347.535156 185.054688 347.746094 188.699219 348.003906 C 192.34375 348.265625 196.085938 348.613281 199.347656 350.253906 C 202.613281 351.894531 205.335938 355.125 205.308594 358.777344 C 205.300781 359.859375 205.0625 360.988281 205.464844 361.988281 C 206.292969 364.070312 209.066406 364.269531 211.222656 364.882812 C 214.433594 365.800781 217.101562 368.445312 218.042969 371.652344 C 218.359375 372.726562 218.496094 373.855469 218.570312 375 L 264.375 375 C 264.101562 371.308594 263.265625 367.304688 259.621094 365.4375 "/></g><g clip-rule="nonzero" clip-path="url(#b9f4c10d47)"><path style=" stroke:none;fill-rule:nonzero;fill:#e38a55;fill-opacity:1;" d="M 259.621094 365.4375 C 256.988281 364.085938 253.398438 364.210938 251.21875 362.371094 C 249.15625 360.628906 249.164062 357.8125 247.859375 355.605469 C 245.859375 352.222656 244.175781 350.734375 239.757812 350.230469 C 237.152344 349.933594 233.894531 349.472656 233.175781 347.324219 C 232.609375 345.628906 234.09375 343.925781 234.152344 342.167969 C 234.183594 341.277344 233.839844 340.488281 233.277344 339.8125 L 228.707031 339.8125 C 229.269531 340.488281 229.609375 341.277344 229.582031 342.167969 C 229.523438 343.925781 228.039062 345.628906 228.605469 347.324219 C 229.324219 349.472656 232.578125 349.933594 235.183594 350.230469 C 239.605469 350.734375 241.289062 352.222656 243.289062 355.605469 C 244.589844 357.8125 244.585938 360.628906 246.648438 362.371094 C 248.828125 364.210938 252.417969 364.085938 255.050781 365.4375 C 258.695312 367.304688 259.53125 371.308594 259.804688 375 L 264.375 375 C 264.101562 371.308594 263.265625 367.304688 259.621094 365.4375 "/></g><path style=" stroke:none;fill-rule:nonzero;fill:#fbc875;fill-opacity:1;" d="M 194.84375 351.699219 L 135.871094 351.699219 C 134.0625 351.699219 132.597656 353.164062 132.597656 354.976562 C 132.597656 356.785156 134.0625 358.25 135.871094 358.25 L 194.84375 358.25 C 196.652344 358.25 198.121094 356.785156 198.121094 354.976562 C 198.121094 353.164062 196.652344 351.699219 194.84375 351.699219 "/><path style=" stroke:none;fill-rule:nonzero;fill:#fbc875;fill-opacity:1;" d="M 205.722656 365.328125 L 119.359375 365.328125 C 118.273438 365.328125 117.394531 366.207031 117.394531 367.292969 C 117.394531 368.378906 118.273438 369.257812 119.359375 369.257812 L 205.722656 369.257812 C 206.804688 369.257812 207.6875 368.378906 207.6875 367.292969 C 207.6875 366.207031 206.804688 365.328125 205.722656 365.328125 "/><path style=" stroke:none;fill-rule:nonzero;fill:#fcd48f;fill-opacity:1;" d="M 196.0625 367.730469 L 121.183594 367.730469 C 120.683594 367.730469 120.277344 367.324219 120.277344 366.824219 L 120.277344 366.667969 C 120.277344 366.167969 120.683594 365.765625 121.183594 365.765625 L 196.0625 365.765625 C 196.5625 365.765625 196.96875 366.167969 196.96875 366.667969 L 196.96875 366.824219 C 196.96875 367.324219 196.5625 367.730469 196.0625 367.730469 "/><path style=" stroke:none;fill-rule:nonzero;fill:#fcd48f;fill-opacity:1;" d="M 187.703125 354.648438 L 135.410156 354.648438 C 134.992188 354.648438 134.652344 354.308594 134.652344 353.890625 L 134.652344 353.441406 C 134.652344 353.023438 134.992188 352.683594 135.410156 352.683594 L 187.703125 352.683594 C 188.125 352.683594 188.464844 353.023438 188.464844 353.441406 L 188.464844 353.890625 C 188.464844 354.308594 188.125 354.648438 187.703125 354.648438 "/><path style=" stroke:none;fill-rule:nonzero;fill:#ee981e;fill-opacity:1;" d="M 187.785156 37.578125 C 187.777344 37.597656 187.789062 37.609375 187.773438 37.632812 C 187.695312 37.632812 187.628906 37.609375 187.554688 37.589844 C 187.519531 38.003906 187.40625 38.414062 187.21875 38.785156 C 188.148438 38.53125 189.136719 38.632812 190.097656 38.738281 C 189.945312 38.332031 189.800781 37.921875 189.660156 37.511719 C 189.660156 37.515625 187.953125 37.625 187.785156 37.578125 "/><path style=" stroke:none;fill-rule:nonzero;fill:#fbda5b;fill-opacity:1;" d="M 197.699219 210.695312 C 195.871094 208.367188 194.925781 205.472656 194.175781 202.605469 C 193.070312 198.375 192.3125 194.054688 191.902344 189.703125 C 191.53125 185.765625 191.445312 181.800781 191.648438 177.851562 C 191.761719 175.707031 191.886719 171.03125 194.460938 169.988281 C 194.722656 169.878906 194.957031 169.832031 195.160156 169.832031 C 197.25 169.832031 196.421875 174.972656 196.3125 176.390625 C 196.003906 180.460938 195.289062 184.488281 195 188.558594 C 194.476562 196.019531 195.398438 203.578125 197.699219 210.695312 "/><path style=" stroke:none;fill-rule:nonzero;fill:#e38a55;fill-opacity:1;" d="M 229.40625 344.089844 C 229.148438 344.292969 228.980469 344.945312 228.714844 345.226562 C 228.378906 345.582031 227.953125 345.859375 227.507812 346.054688 C 226.558594 346.476562 225.496094 346.574219 224.457031 346.664062 C 217.125 347.304688 209.789062 347.945312 202.457031 348.582031 C 208.855469 348.523438 215.253906 348.46875 221.652344 348.410156 C 224.714844 348.382812 227.789062 348.355469 230.820312 348.769531 C 230.828125 348.074219 231.0625 347.410156 231.222656 346.734375 C 231.382812 346.0625 231.460938 345.328125 231.167969 344.699219 C 230.824219 343.957031 230.003906 343.613281 229.40625 344.089844 "/><path style=" stroke:none;fill-rule:nonzero;fill:#e38a55;fill-opacity:1;" d="M 247.28125 361.097656 C 247.425781 360.417969 247.492188 359.683594 247.191406 359.058594 C 246.832031 358.324219 246.007812 357.996094 245.417969 358.480469 C 245.164062 358.691406 245.007812 359.34375 244.746094 359.628906 C 244.417969 359.988281 243.996094 360.273438 243.554688 360.480469 C 242.609375 360.917969 241.550781 361.03125 240.515625 361.140625 C 233.195312 361.90625 225.871094 362.671875 218.550781 363.433594 C 224.949219 363.269531 231.546875 363.40625 237.945312 363.238281 C 241.003906 363.15625 246.265625 363.351562 249.304688 363.710938 C 249.300781 363.019531 247.132812 361.773438 247.28125 361.097656 "/><g clip-rule="nonzero" clip-path="url(#355ab5f730)"><path style=" stroke:none;fill-rule:nonzero;fill:#e38a55;fill-opacity:1;" d="M 249.921875 372.324219 C 240.34375 374.328125 226.289062 374.800781 226.289062 374.800781 L 226.289062 375 C 226.425781 375 264.375 375 264.375 375 L 257.371094 367.292969 C 257.371094 367.292969 259.785156 370.257812 249.921875 372.324219 "/></g><g clip-rule="nonzero" clip-path="url(#e2bd12727a)"><path style=" stroke:none;fill-rule:nonzero;fill:#ed9e60;fill-opacity:1;" d="M 141.410156 341.09375 C 141.484375 340.667969 141.726562 340.242188 141.964844 339.8125 L 141.722656 339.8125 C 141.160156 340.488281 140.820312 341.277344 140.851562 342.167969 C 140.910156 343.925781 142.390625 345.628906 141.824219 347.324219 C 141.105469 349.472656 137.851562 349.933594 135.246094 350.230469 C 130.824219 350.734375 129.140625 352.222656 127.144531 355.605469 C 125.839844 357.8125 125.847656 360.628906 123.78125 362.371094 C 121.601562 364.210938 118.011719 364.085938 115.378906 365.4375 C 111.734375 367.304688 110.898438 371.308594 110.625 375 L 120.753906 375 C 119.503906 374.238281 117.96875 373.789062 116.914062 372.757812 C 115.929688 371.800781 115.457031 370.390625 115.46875 369.015625 C 115.472656 368.140625 115.6875 367.222656 116.277344 366.570312 C 116.769531 366.027344 117.472656 365.726562 118.152344 365.441406 C 121.386719 364.089844 124.734375 362.714844 128.238281 362.765625 C 130.351562 362.796875 132.539062 363.339844 134.523438 362.617188 C 133.273438 362.386719 132.023438 362.160156 130.773438 361.929688 C 130.09375 361.808594 129.382812 361.667969 128.855469 361.222656 C 128.445312 360.875 128.191406 360.375 128.035156 359.863281 C 127.367188 357.671875 128.386719 355.230469 130.050781 353.652344 C 131.71875 352.078125 133.925781 351.21875 136.117188 350.542969 C 139.917969 349.371094 143.882812 348.640625 147.859375 348.710938 C 146.128906 347.871094 144.542969 346.726562 143.203125 345.339844 C 142.09375 344.191406 141.128906 342.765625 141.410156 341.09375 "/></g></g></svg>